<svg width="76" height="98" viewBox="0 0 76 98" fill="none" xmlns="http://www.w3.org/2000/svg">
<path d="M34.2922 0.00741895C32.5651 0.0380433 30.8171 0.167756 29.0536 0.418172C26.4611 0.97754 23.9571 1.8814 21.7187 3.04783C18.8988 4.31834 15.9826 5.63078 13.3463 5.81724C13.213 5.82591 13.0825 5.84824 12.9535 5.88076C9.26799 6.82388 6.08923 9.08141 4.04317 12.1818L3.71442 12.6561C3.64666 12.7558 3.5833 12.861 3.53084 12.9694C1.72742 16.7115 1.24736 20.9973 2.22011 25.1904C2.8453 27.2175 3.59078 29.1648 4.31214 31.051L4.53416 31.6227C6.21953 35.5448 7.4437 39.6651 8.176 43.869C8.21316 44.0815 8.28048 44.288 8.37666 44.4788C9.09584 45.8924 9.65859 47.3801 10.0674 48.9801C10.2488 49.6067 10.4341 50.2501 10.6352 50.8984C10.692 51.0827 10.8015 51.2335 10.8999 51.3896C10.9043 51.6173 10.9344 51.846 11.0109 52.0671L14.0465 60.6802C14.252 61.2656 14.699 61.7334 15.2761 61.9675C15.8554 62.2017 16.5054 62.1793 17.065 61.9083C22.7966 59.1461 36.2213 52.6787 54.7429 64.1653C55.097 64.3843 55.4998 64.4956 55.9042 64.4956C56.1993 64.4956 56.4933 64.4391 56.7709 64.3177C57.431 64.0337 57.9097 63.447 58.0474 62.7467C58.4956 60.4854 58.655 56.8558 58.5085 53.9007L58.6452 53.2528C58.8222 52.3964 58.9973 51.5283 59.1831 50.6697C60.9144 46.8495 63.9766 43.1567 66.9407 39.5836C71.5859 33.9834 76.3902 28.194 75.9749 21.7223C75.9552 21.4274 75.8777 21.1377 75.7443 20.8753C75.0601 19.5398 74.2936 18.2397 73.3449 16.7805L73.1613 16.4883C72.9405 16.1458 72.7183 15.8078 72.491 15.4847C72.3205 15.2419 72.1471 15.0115 71.9744 14.786L71.7908 14.5404C71.4432 14.0808 71.0968 13.6232 70.7405 13.1896C70.5482 12.9598 70.3579 12.7411 70.1044 12.457C69.7087 12.0061 69.3154 11.5711 68.9132 11.157L68.3838 10.6235C67.9182 10.166 67.451 9.73086 66.9919 9.33193L66.6547 9.04398C60.8422 4.12673 54.8729 2.83343 51.2377 2.04424L49.2097 1.59115C44.4749 0.690301 39.4737 -0.0844541 34.2922 0.00741895ZM36.4611 4.35208C38.4394 4.40981 40.4501 4.59738 42.5323 4.8814C35.4104 15.3988 36.625 29.6211 38.2842 42.027C36.1113 41.86 33.8856 41.8127 31.6537 41.9211C30.3902 34.5366 29.0693 25.2663 27.9436 17.962C27.6069 14.673 27.8989 11.3523 28.8017 8.17166C29.698 6.25723 29.7819 5.17657 30.5863 4.59768C32.5395 4.36461 34.4828 4.29435 36.4611 4.35208ZM29.4037 4.80518C28.4353 5.61821 27.7285 6.90129 27.2476 8.52736C26.441 11.8337 26.1676 15.2422 26.4364 18.6353C26.9698 26.5575 28.4207 34.3789 30.6504 41.9889C28.5431 42.1363 26.4474 42.4146 24.4298 42.8612C22.8996 37.6296 23.1691 31.6848 22.6751 26.1431C22.1745 19.808 20.0736 13.8064 17.398 10.2551C17.2144 9.82144 17.2366 9.60287 17.2913 9.42509C18.4542 9.08686 19.6002 8.67384 20.7282 8.20553C20.8615 8.27925 20.9965 8.35151 21.1167 8.4469L21.1594 8.39609C21.0414 8.3137 20.9168 8.25167 20.7922 8.18012C21.7584 7.77686 22.7132 7.36207 23.6357 6.94363C25.5025 5.97232 27.4801 5.26481 29.4037 4.80518ZM21.1167 8.4469L21.0911 8.47654H21.1594C21.1463 8.4657 21.132 8.45991 21.1167 8.4469ZM42.6518 4.8941C44.4771 5.1456 46.3543 5.46333 48.3216 5.83841L50.371 6.29574C51.8858 6.62529 53.7599 7.04513 55.806 7.77361C52.2647 14.0546 49.8756 20.9159 48.787 28.0402C48.0044 33.1916 47.647 38.3903 47.6513 43.5938C44.9888 42.8718 41.9414 42.3383 38.7325 42.0651C38.6057 39.3008 38.5141 36.4892 38.63 34.9087C39.0103 29.6727 39.4516 13.4819 42.6518 4.8941ZM56.3653 7.96416C58.7174 8.85959 61.2798 10.1942 63.8155 12.3385L64.1015 12.5883C64.5037 12.9374 64.9033 13.3116 65.3055 13.7062L65.7666 14.1678C66.112 14.5255 66.4571 14.9041 66.8724 15.3789C67.0363 15.5653 67.1995 15.7513 67.3591 15.9421C67.5996 16.2348 67.8338 16.5488 68.0721 16.861C64.0325 18.4177 57.326 33.1919 56.4123 46.5495C56.2527 46.8292 56.087 47.1061 55.9383 47.3879C54.1131 45.8659 51.5228 44.7649 49.1926 44.0299C48.8254 43.915 48.4289 43.8123 48.0441 43.7039C48.3939 38.4658 48.8889 32.9755 49.3677 28.0106C50.9197 19.8585 54.8963 15.6782 56.3653 7.96416ZM16.6082 9.63258C16.7153 9.93611 16.8826 10.2218 17.1034 10.4668C19.7528 14.0311 20.2665 19.8294 20.8392 26.1516C21.3267 31.7258 21.8857 37.7029 23.9602 42.9671C22.1917 43.3855 20.4967 43.9375 18.8966 44.627C17.5894 39.9374 16.9664 34.6502 15.9806 29.8696C14.6427 23.4043 14.4676 17.618 12.2576 15.8532C11.4094 14.6932 9.13922 14.7958 10.2125 12.6645C10.4683 12.2092 10.786 11.7937 11.092 11.3688C11.9577 10.8441 12.8746 10.399 13.8714 10.128C14.7852 10.0478 15.6988 9.86673 16.6082 9.63258ZM10.362 11.8049C10.1565 12.0824 9.95339 12.3649 9.80693 12.6815C9.41127 13.4056 9.23943 14.229 9.31594 15.0486C9.38371 15.4779 9.55961 15.8852 9.81974 16.2343C12.0035 17.9622 13.1359 23.4535 14.4606 29.895C15.4596 34.7493 16.6158 40.1202 18.3843 44.8684C16.8541 45.5687 15.4322 46.4098 14.1447 47.4006C13.7119 45.8288 13.1477 44.2866 12.4241 42.8188C11.6284 38.3916 10.3281 34.0572 8.58587 30.0051L8.39801 29.5139C7.70287 27.6948 6.98264 25.8155 6.43833 24.0767C5.73882 21.0392 6.07864 17.8186 7.39896 14.9935L7.66366 14.6167C8.39159 13.5131 9.30832 12.5659 10.362 11.8049ZM68.2728 17.1235C68.2772 17.1279 68.2769 17.1297 68.2813 17.1362L68.4863 17.403C68.6305 17.5873 68.7712 17.7753 68.9089 17.9704C69.1013 18.2436 69.2888 18.5331 69.4768 18.8258L69.6732 19.1307C70.4404 20.308 71.069 21.3672 71.6286 22.4252C71.6767 27.0541 67.7343 31.8077 63.5678 36.8312C61.9459 38.7846 60.3003 40.7718 58.8117 42.8358C62.1759 34.2935 65.4245 25.7829 68.2728 17.1235ZM33.148 46.2404C38.4599 46.1197 43.8017 46.8837 47.8691 48.1671C52.7241 49.6978 53.8815 51.3025 53.9274 51.7665C54.0083 52.2998 54.0652 52.9488 54.1067 53.6339L54.0939 53.689C54.0196 54.0424 54.064 54.3843 54.158 54.7095C54.1995 56.032 54.1853 57.4565 54.111 58.7747C46.4886 54.651 39.6315 53.2697 33.7884 53.2697C26.6491 53.2697 21.0272 55.3338 17.3767 56.9708L15.575 51.8596C19.5392 48.0107 26.3185 46.3956 33.148 46.2404ZM22.0261 66.0793L21.0356 66.7399C21.4553 67.438 21.9983 68.0555 22.6366 68.565C23.1394 68.8772 23.7264 69.0293 24.3188 69.0011C24.6226 68.999 24.9225 68.9587 25.2154 68.8741L28.5199 67.6884C28.7451 67.6017 28.9839 67.5572 29.2244 67.5572C29.5873 67.5333 29.9495 67.6308 30.2533 67.8324C30.6708 68.1706 31.032 68.5672 31.325 69.0139L32.2642 68.493V68.4676C31.8576 67.841 31.3494 67.2864 30.7614 66.8246C30.2892 66.4994 29.7267 66.3268 29.1518 66.3376C28.9594 66.3333 28.7653 66.3698 28.5882 66.4435L25.0104 67.6292C24.7831 67.6985 24.5443 67.7288 24.306 67.7223C23.8819 67.7527 23.4581 67.637 23.1105 67.392C22.6755 67.0169 22.3103 66.5736 22.0261 66.0793ZM58.7306 68.4422C58.3895 68.4725 58.076 68.6392 57.8596 68.9038C57.5995 69.1227 57.4336 69.4294 57.3942 69.7676C57.3702 69.8413 57.3702 69.9226 57.3942 69.9963C58.1637 70.8028 59.147 71.3704 60.2334 71.6393C61.3198 71.971 62.4073 72.2908 63.4697 72.5878C64.5451 72.9412 65.4582 73.6642 66.0484 74.6246C66.0593 74.668 66.0593 74.7126 66.0484 74.7559C66.0484 74.9576 65.5603 75.2869 64.6181 75.7595C64.1416 76.0327 63.425 76.634 62.2315 77.5338C61.4861 78.1387 60.6887 78.6748 59.8449 79.1345C59.1279 79.451 58.4985 79.9395 58.0176 80.553C58.0066 80.5639 57.9964 80.5739 57.9877 80.5869C57.6073 81.0205 57.653 81.6833 58.0901 82.0605C58.3175 82.2774 58.6228 82.3952 58.9398 82.3908C59.1649 82.3865 59.3855 82.3298 59.5844 82.2257C61.1234 81.2631 62.6019 80.2051 64.0119 79.0625C65.4415 77.8874 66.9344 76.785 68.4777 75.7595C69.3368 75.2392 69.7543 74.6949 69.7543 74.1377C69.7259 73.7648 69.5205 73.4267 69.2035 73.2272C67.3633 71.5884 65.1922 70.3715 62.8378 69.6406L61.1044 68.8953C60.5207 68.6329 59.894 68.479 59.2557 68.4422C59.0808 68.4183 58.9033 68.4183 58.7306 68.4422ZM11.1134 68.565C9.58758 69.7011 7.91863 70.6319 6.14801 71.3344C4.39268 72.052 2.72999 72.9747 1.19545 74.0826C0.450034 74.7439 0.0153017 75.6834 0 76.6742C0.0874383 77.0493 0.356584 77.3611 0.717268 77.5042C1.0386 77.6104 1.37572 77.7382 1.69924 77.8683C4.96288 79.2407 8.02558 80.7193 10.8914 82.2977C11.2717 82.5709 11.6285 82.8702 11.963 83.1954C12.1816 83.2908 12.4164 83.3394 12.6547 83.3394C13.2427 83.3437 13.816 83.1427 14.2685 82.7719C14.7297 82.4467 14.9725 81.8979 14.9004 81.3407C14.9201 80.9309 14.6724 80.5524 14.2899 80.4006L9.3501 78.2452C7.71063 77.5557 6.1115 76.7648 4.57258 75.8781C5.65244 74.5447 7.10853 73.557 8.75237 73.0367C10.3853 72.5142 11.8923 71.6635 13.1798 70.5383C13.3656 70.3627 13.468 70.1187 13.4658 69.865C13.4571 69.5073 13.2868 69.1714 13.0005 68.9546C12.6595 68.6944 12.2399 68.5563 11.8093 68.565H11.1134ZM45.6575 71.9145C44.6957 71.8798 43.7572 72.2254 43.0446 72.8715C42.2424 73.6586 41.9054 74.7981 42.148 75.8908C42.2573 76.9228 42.6746 77.9004 43.3435 78.6983C43.9074 79.4441 44.7901 79.8797 45.7301 79.8797C46.3465 79.8711 46.9493 79.7111 47.4848 79.4097C48.6587 78.5772 49.2758 77.1711 49.0944 75.751C49.0354 74.1532 48.6552 73.0743 47.9032 72.5539C47.2387 72.116 46.4554 71.8928 45.6575 71.9145ZM27.1324 71.995C26.1705 71.9581 25.2321 72.2996 24.5195 72.9435C23.7128 73.7284 23.3696 74.8679 23.6101 75.9628C23.7259 76.9926 24.1432 77.9681 24.8055 78.7703C25.3673 79.5161 26.2522 79.9539 27.1921 79.9517C27.8086 79.9409 28.4091 79.7809 28.9469 79.4817C30.0202 78.8421 30.5479 77.6334 30.5479 75.823C30.6856 74.6349 30.2525 73.4498 29.3781 72.6259C28.7136 72.1901 27.928 71.9711 27.1324 71.995ZM27.0854 74.54C27.7456 74.54 28.2808 75.0709 28.2808 75.7256C28.2808 76.3804 27.7456 76.9113 27.0854 76.9113C26.4252 76.9113 25.8899 76.3804 25.8899 75.7256C25.8899 75.0709 26.4252 74.54 27.0854 74.54ZM45.2775 74.6755C45.9355 74.6733 46.473 75.2021 46.473 75.8569C46.473 76.5117 45.9355 77.0426 45.2775 77.0426C44.6174 77.0426 44.0863 76.5117 44.0863 75.8569C44.0863 75.2021 44.6174 74.6755 45.2775 74.6755ZM33.7116 82.9879C33.6853 83.0139 33.6692 83.0442 33.6561 83.0811V83.1785C33.82 83.6316 34.0259 84.0644 34.2751 84.4785C34.5003 84.8752 34.7841 85.2417 35.112 85.5583C35.4071 85.864 35.7519 86.1171 36.1366 86.3036C36.5148 86.4618 36.9211 86.5489 37.3321 86.5619L37.379 86.6127C37.7091 86.6149 38.0357 86.5541 38.3439 86.4348C38.639 86.3156 38.9185 86.1618 39.1765 85.9775C39.4213 85.7824 39.6519 85.5701 39.8596 85.3381C40.0563 85.1169 40.2296 84.8803 40.3805 84.6267C40.5247 84.4034 40.6554 84.1708 40.7647 83.928C40.85 83.7524 40.9194 83.5724 40.9696 83.386V83.2801C40.9456 83.2476 40.9252 83.2111 40.9099 83.1742C40.5995 83.649 40.2138 84.0659 39.7657 84.415C39.4225 84.7358 39.014 84.983 38.5702 85.1391C38.1221 85.293 37.6485 85.3678 37.1741 85.3635C36.7697 85.37 36.3656 85.3133 35.9787 85.1983C35.6464 85.0943 35.3362 84.9322 35.0607 84.7241C34.7809 84.5008 34.5279 84.25 34.3093 83.9703C34.0798 83.6625 33.8777 83.3326 33.7116 82.9879ZM30.5479 87.5316C25.7738 87.7809 22.9913 93.8625 16.3306 88.2515C14.5163 99.0247 27.7901 100.093 33.2462 95.2258C37.0192 91.8869 35.956 87.2346 30.5479 87.5316ZM41.4862 87.5316C36.9272 87.8105 36.2157 92.0976 39.7529 95.2258C45.209 100.091 58.4785 99.0247 56.6641 88.2515C50.0035 93.8625 47.2232 87.7788 42.4469 87.5316C42.1089 87.513 41.7902 87.513 41.4862 87.5316Z" fill="white"/>
</svg>
