<svg width="134" height="93" viewBox="0 0 134 93" fill="none" xmlns="http://www.w3.org/2000/svg">
<path d="M117.862 58.9454C116.698 57.7391 115.744 56.2827 115.26 54.6133C114.785 53.0605 116.148 52.7749 115.908 52.2237C115.025 49.878 113.32 48.4971 111.055 47.6662C107.674 46.5437 104.5 46.4372 101.181 46.5784C102.616 44.3519 103.815 42.0629 104.823 39.6218C106.173 39.9861 113.978 41.7916 118.656 50.5941C121.844 56.9487 119.618 60.4837 117.862 58.9454Z" fill="white"/>
<path d="M112.303 21.2836C109.788 19.916 109.715 19.6634 109.125 18.3866C107.617 14.9605 104.299 15.0275 104.265 14.9003C103.527 12.3602 102 10.6162 99.5473 9.59121C96.798 8.43732 92.2665 8.90363 88.2677 11.1309C81.4213 14.9393 76.756 22.6418 71.4243 27.4049C65.2628 32.9098 57.0976 34.9862 49.7565 31.0311C45.2982 28.6291 41.5708 26.3078 36.3221 26.2696C29.7732 26.2213 23.7442 29.2048 18.548 33.2269C17.6634 33.834 17.5439 32.9861 16.9935 33.5516C15.4517 35.1294 16.9053 33.449 12.6835 38.7802C12.8726 38.7412 14.7299 37.4177 17.3081 36.1078C18.4768 35.572 18.1799 34.9268 18.7227 34.4418C24.0402 31.416 30.2244 28.1069 36.5137 28.8894C42.6123 29.8492 43.8742 35.0091 40.5752 36.7369C37.869 38.3859 30.6391 41.1312 18.0052 50.1471C15.8884 51.9309 12.7208 54.57 12.1187 57.5526C12.0297 58.2836 12.3918 58.7702 13.1508 59.1019C15.0327 59.9155 18.6718 59.6114 20.7386 59.3458C22.2694 59.2703 21.5714 57.2162 20.2348 56.4321C19.324 55.9242 18.3266 55.9081 17.2089 56.1107C19.011 52.0434 26.8957 52.6548 36.2958 50.8635C52.751 47.9808 59.0863 38.5462 80.8803 29.2761C84.9555 27.6465 90.5205 25.3455 94.8352 25.3455C99.8601 25.2429 101.347 30.5071 99.1401 35.4652C99.1649 33.193 99.2294 30.4986 96.9794 29.6796C89.7655 27.9882 68.627 37.5669 51.9767 52.2995C50.0126 54.053 46.9366 57.0297 45.5933 59.2644C59.2244 52.2995 73.5995 43.5967 83.5958 44.2291C87.0457 44.3801 89.7781 45.8281 88.4707 48.8795C86.7692 52.464 83.0088 54.7482 79.7075 56.3817C79.4962 55.663 79.2724 55.0543 78.4234 54.9713C76.8984 54.821 75.305 54.9981 74.0193 55.6146C72.5062 56.381 71.7064 57.9149 73.5315 58.8328C75.9963 60.2251 80.7108 60.4226 85.9705 56.9534C97.5483 49.4999 102.478 36.5987 103.041 35.1837C103.948 32.6597 103.893 30.9768 103.737 29.3523C103.559 27.6431 103.465 25.9195 105.563 24.5494C103.265 28.3646 106.102 33.193 110.555 33.0777C109.667 31.1565 110.002 29.6321 110.057 29.6364C110.62 29.6847 111.784 29.8263 112.479 29.7703C114.328 29.6626 115.368 28.4104 116.253 26.9513C116.58 26.4019 115.884 26.4536 115.75 25.2489C117.001 25.3769 117.617 25.3116 117.714 25.0479C117.864 24.6334 116.719 23.6889 112.303 21.2836Z" fill="white"/>
<path d="M112.303 21.2836C109.788 19.916 109.715 19.6634 109.125 18.3866C107.617 14.9605 104.299 15.0275 104.265 14.9003C103.527 12.3602 102 10.6162 99.5473 9.59121C96.798 8.43732 92.2665 8.90363 88.2677 11.1309C81.4213 14.9393 76.756 22.6418 71.4243 27.4049C65.2628 32.9098 57.0976 34.9862 49.7565 31.0311C45.2982 28.6291 41.5708 26.3078 36.3221 26.2696C29.7732 26.2213 23.7442 29.2048 18.548 33.2269C17.6634 33.834 17.5439 32.9861 16.9935 33.5516C15.4517 35.1294 16.9053 33.449 12.6835 38.7802C12.8726 38.7412 14.7299 37.4177 17.3081 36.1078C18.4768 35.572 18.1799 34.9268 18.7227 34.4418C24.0402 31.416 30.2244 28.1069 36.5137 28.8894C42.6123 29.8492 43.8742 35.0091 40.5752 36.7369C37.869 38.3859 30.6391 41.1312 18.0052 50.1471C15.8884 51.9309 12.7208 54.57 12.1187 57.5526C12.0297 58.2836 12.3918 58.7702 13.1508 59.1019C15.0327 59.9155 18.6718 59.6114 20.7386 59.3458C22.2694 59.2703 21.5714 57.2162 20.2348 56.4321C19.324 55.9242 18.3266 55.9081 17.2089 56.1107C19.011 52.0434 26.8957 52.6548 36.2958 50.8635C52.751 47.9808 59.0863 38.5462 80.8803 29.2761C84.9555 27.6465 90.5205 25.3455 94.8352 25.3455C99.8601 25.2429 101.347 30.5071 99.1401 35.4652C99.1649 33.193 99.2294 30.4986 96.9794 29.6796C89.7655 27.9882 68.627 37.5669 51.9767 52.2995C50.0126 54.053 46.9366 57.0297 45.5933 59.2644C59.2244 52.2995 73.5995 43.5967 83.5958 44.2291C87.0457 44.3801 89.7781 45.8281 88.4707 48.8795C86.7692 52.464 83.0088 54.7482 79.7075 56.3817C79.4962 55.663 79.2724 55.0543 78.4234 54.9713C76.8984 54.821 75.305 54.9981 74.0193 55.6146C72.5062 56.381 71.7064 57.9149 73.5315 58.8328C75.9963 60.2251 80.7108 60.4226 85.9705 56.9534C97.5483 49.4999 102.478 36.5987 103.041 35.1837C103.948 32.6597 103.893 30.9768 103.737 29.3523C103.559 27.6431 103.465 25.9195 105.563 24.5494C103.265 28.3646 106.102 33.193 110.555 33.0777C109.667 31.1565 110.002 29.6321 110.057 29.6364C110.62 29.6847 111.784 29.8263 112.479 29.7703C114.328 29.6626 115.368 28.4104 116.253 26.9513C116.58 26.4019 115.884 26.4536 115.75 25.2489C117.001 25.3769 117.617 25.3116 117.714 25.0479C117.864 24.6334 116.719 23.6889 112.303 21.2836Z" stroke="white" stroke-width="1.27176"/>
<path d="M28.7103 89.0761C28.2698 89.4333 27.4708 89.66 26.7556 89.66C25.6818 89.66 24.4036 89.1804 24.4036 86.8994V80.3135H21.3804V87.6981C21.3804 89.8666 22.2883 91.3456 23.8677 91.8845C24.3018 92.0325 24.7837 92.1136 25.3152 92.1136C25.8138 92.1136 26.2548 92.0266 26.6429 91.8845C28.2048 91.3119 28.8819 89.8058 28.7074 89.082L28.7103 89.0761Z" fill="white"/>
<path d="M29.4046 80.3137V86.8997C29.4046 86.9814 29.4026 87.0618 29.3979 87.1405L29.4111 87.1111L29.4046 91.8847H32.4277V80.3137H29.4046Z" fill="white"/>
<path d="M41.9516 85.2465L39.7125 84.7668C38.5906 84.5416 38.3549 83.9374 38.3549 83.4701C38.3549 83.0198 38.5928 82.263 40.1791 82.263C41.4595 82.263 42.1955 82.809 42.3726 83.8848H44.8645C44.7789 82.0182 43.7854 80.7931 42.0177 80.3137C41.4638 80.1634 40.8359 80.0844 40.1336 80.0844C39.4285 80.0844 38.7895 80.1644 38.2241 80.3137C36.4587 80.7801 35.4211 81.9369 35.4211 83.562C35.4211 85.2694 36.5178 86.3866 38.682 86.883L40.874 87.3395C41.7138 87.5127 42.1412 87.9189 42.1412 88.5448C42.1412 89.4283 41.4013 89.9352 40.1107 89.9352C38.7447 89.9352 37.9692 89.3805 37.8022 88.2882H35.1045C35.1744 90.1698 36.2182 91.4031 38.0944 91.8844C38.6797 92.0348 39.3438 92.1139 40.0876 92.1139C40.8611 92.1139 41.5579 92.034 42.1739 91.8844C44.1354 91.4086 45.2563 90.2086 45.2563 88.4761C45.2563 86.7683 44.2076 85.7403 41.9516 85.2465Z" fill="white"/>
<path d="M55.5109 87.5582C55.1816 88.9385 54.3184 89.6369 52.9401 89.6369C51.0824 89.6369 49.9732 88.3232 49.9732 86.122C49.9732 83.8911 51.0824 82.5611 52.9401 82.5611C54.3266 82.5611 55.1921 83.2447 55.5109 84.5937H58.2277C57.8689 81.8396 56.2815 80.7301 54.7597 80.3135C54.1168 80.1374 53.4855 80.0841 52.9632 80.0841C52.3896 80.0841 51.7953 80.157 51.2151 80.3135C49.0762 80.8906 47.1313 82.6167 47.1313 86.122C47.1313 88.4477 48.214 91.1011 51.121 91.8842C51.6687 92.0319 52.2808 92.1136 52.9632 92.1136C53.4129 92.1136 54.0504 92.0698 54.7286 91.8842C56.2208 91.4761 57.9101 90.3819 58.2297 87.5582H55.5109Z" fill="white"/>
<path d="M60.9062 76.2003V91.8845H63.9293V76.2003H60.9062Z" fill="white"/>
<path d="M69.4494 84.9874L69.4742 84.9567C69.7161 83.2241 70.7024 82.3088 72.3265 82.3088C74.0113 82.3088 75.01 83.2803 75.0665 84.9733L75.0705 84.9874H69.4494ZM77.9061 86.0301C77.9061 84.1381 77.3861 81.1552 74.2792 80.3134C73.7397 80.1674 73.1246 80.0844 72.4184 80.0844C71.7396 80.0844 71.1125 80.1624 70.5405 80.3134C68.0461 80.9725 66.6094 83.0234 66.6094 86.0759C66.6094 90.0452 68.8503 91.4198 70.6431 91.8844C71.3804 92.0755 72.0425 92.1139 72.4413 92.1139C73.09 92.1139 73.6903 92.034 74.2394 91.8844C76.0166 91.4004 77.2423 90.16 77.7058 88.3111H75.0705C74.7201 89.3868 73.8946 89.8894 72.4873 89.8894C70.6671 89.8894 69.6534 88.9032 69.4742 86.9579L69.4576 86.8392H77.8623C77.8914 86.5971 77.9061 86.3867 77.9061 86.0301Z" fill="white"/>
<path d="M83.6087 80.3135H80.5835V91.8845H83.6087V85.3096L83.6116 85.3002V85.1485C83.6096 85.1985 83.6087 85.2485 83.6087 85.2982V80.3135Z" fill="white"/>
<path d="M96.122 80.3135C95.7053 80.1655 95.2429 80.0841 94.7334 80.0841C94.2334 80.0841 93.7824 80.1707 93.3795 80.3135C92.0722 80.7772 91.2875 81.8559 91.1156 82.6797L90.9904 83.2823L90.813 82.6921C90.4569 81.5069 89.7127 80.6867 88.7005 80.3135C88.2976 80.1648 87.8538 80.0851 87.3728 80.0841C86.8289 80.0834 86.3813 80.1701 86.0057 80.3135C84.5354 80.8749 84.2364 82.3477 84.1923 83.2277L84.1733 83.3477C84.5387 82.8627 85.1005 82.5382 85.9116 82.5382C86.8789 82.5382 88.0342 83.0153 88.0342 85.2982V91.8845H91.0574V85.2982C91.0574 83.964 91.6618 82.5382 93.3634 82.5382C94.3307 82.5382 95.4837 83.0153 95.4837 85.2982V91.8845H98.5094V84.4999C98.5094 82.3314 97.6377 80.8524 96.122 80.3135Z" fill="white"/>
<path d="M3.60514 80.3137H0.580078V91.8847H3.60514V85.3099L3.60787 85.3004V85.1488C3.6062 85.1988 3.60514 85.2488 3.60514 85.2984V80.3137Z" fill="white"/>
<path d="M14.7295 80.0847C12.6069 80.0847 11.3369 81.6023 11.1117 82.6803L10.9868 83.2826L10.8094 82.6928C10.3114 81.0353 9.05808 80.0873 7.36908 80.0847C4.69424 80.0801 4.24384 82.1238 4.18868 83.2284L4.16943 83.348C4.53512 82.8633 5.09691 82.5385 5.9077 82.5385C6.87503 82.5385 8.03028 83.0159 8.03028 85.2988V91.8848H11.0535V85.2988C11.0535 83.9646 11.6582 82.5385 13.3595 82.5385C14.3268 82.5385 15.4801 83.0159 15.4801 85.2988V91.8848H18.5053V84.5005C18.5053 81.7359 17.094 80.0847 14.7295 80.0847Z" fill="white"/>
<path d="M103.109 78.606C104.016 78.606 104.781 77.841 104.781 76.9341C104.781 76.0165 104.016 75.2391 103.109 75.2391C102.204 75.2391 101.438 76.0165 101.438 76.9341C101.438 77.841 102.204 78.606 103.109 78.606Z" fill="white"/>
<path d="M101.599 91.8849H104.624V80.3138H101.599V91.8849Z" fill="white"/>
<path d="M110.985 80.3137H107.96V91.8847H110.985V85.2984C110.985 85.2033 110.989 85.1105 110.995 85.0194V85.005L110.985 85.0328V80.3137Z" fill="white"/>
<path d="M116.523 80.3138C116.088 80.1657 115.606 80.0844 115.075 80.0844C114.421 80.0844 113.887 80.1693 113.451 80.3138C111.77 80.8689 111.538 82.3182 111.538 83.3339L111.515 83.4633L111.508 83.4829H111.511C111.962 82.8741 112.691 82.5385 113.636 82.5385C114.709 82.5385 115.986 83.0156 115.986 85.2985V91.8848H119.011V84.5001C119.011 82.3316 118.102 80.8526 116.523 80.3138Z" fill="white"/>
<path d="M130.397 76.2V87.2445C130.397 87.2474 130.395 87.2514 130.395 87.2543V87.2739L130.397 87.268V91.8841H133.42V76.2H130.397Z" fill="white"/>
<path d="M127.925 80.3133C127.574 80.1705 127.19 80.0882 126.787 80.0842C126.772 80.0842 126.757 80.0842 126.742 80.0842C126.237 80.0842 125.732 80.1604 125.247 80.3133C123.312 80.9234 121.688 82.7762 121.688 86.0986C121.688 89.4213 123.312 91.2743 125.247 91.8842C125.734 92.0369 126.239 92.1131 126.742 92.1131C127.236 92.1131 127.645 92.0284 127.989 91.8842C129.523 91.2409 129.71 89.4014 129.853 88.4965L129.859 88.4796H129.857C129.37 89.1841 128.609 89.6603 127.542 89.6603C126.152 89.6603 124.531 88.7279 124.531 86.0986C124.531 83.4694 126.152 82.538 127.542 82.538C128.628 82.538 129.4 83.0328 129.885 83.7592V83.2262C129.885 81.9109 129.075 80.7793 127.925 80.3133Z" fill="white"/>
</svg>
